<?xml version="1.0" encoding="UTF-8" standalone="no"?>
<!-- Created with Inkscape (http://www.inkscape.org/) -->

<svg
   xmlns:dc="http://purl.org/dc/elements/1.1/"
   xmlns:cc="http://creativecommons.org/ns#"
   xmlns:rdf="http://www.w3.org/1999/02/22-rdf-syntax-ns#"
   xmlns:svg="http://www.w3.org/2000/svg"
   xmlns="http://www.w3.org/2000/svg"
   xmlns:sodipodi="http://sodipodi.sourceforge.net/DTD/sodipodi-0.dtd"
   xmlns:inkscape="http://www.inkscape.org/namespaces/inkscape"
   width="16.933336mm"
   height="9.1454306mm"
   viewBox="0 0 60.000008 32.405067"
   id="svg2"
   version="1.1"
   inkscape:version="0.91 r13725"
   sodipodi:docname="WelyLogo.svg">
  <sodipodi:namedview
     id="base"
     pagecolor="#ffffff"
     bordercolor="#666666"
     borderopacity="1.0"
     inkscape:pageopacity="0.0"
     inkscape:pageshadow="2"
     inkscape:zoom="1.979899"
     inkscape:cx="-5.3883636"
     inkscape:cy="8.3271863"
     inkscape:document-units="px"
     inkscape:current-layer="layer1"
     showgrid="false"
     inkscape:window-width="1280"
     inkscape:window-height="755"
     inkscape:window-x="0"
     inkscape:window-y="1"
     inkscape:window-maximized="1"
     fit-margin-top="0"
     fit-margin-left="0"
     fit-margin-right="0"
     fit-margin-bottom="0" />
  <defs
     id="defs4" />
  <metadata
     id="metadata7">
    <rdf:RDF>
      <cc:Work
         rdf:about="">
        <dc:format>image/svg+xml</dc:format>
        <dc:type
           rdf:resource="http://purl.org/dc/dcmitype/StillImage" />
        <dc:title></dc:title>
      </cc:Work>
    </rdf:RDF>
  </metadata>
  <g
     inkscape:groupmode="layer"
     id="layer2"
     inkscape:label="Background"
     transform="translate(-25.357143,-40.892143)">
    <rect
       style="fill:#ffffff;fill-opacity:1;fill-rule:evenodd;stroke:none;stroke-width:1px;stroke-linecap:butt;stroke-linejoin:miter;stroke-opacity:1"
       id="rect3416"
       width="60"
       height="32.405064"
       x="25.357143"
       y="40.892143"
       rx="7.5351334"
       ry="7.5351334"
       inkscape:export-xdpi="90"
       inkscape:export-ydpi="90" />
  </g>
  <g
     id="layer1"
     inkscape:groupmode="layer"
     inkscape:label="Wely"
     transform="translate(-421.9955,-465.42718)">
    <g
       id="g3392"
       transform="matrix(0.70886074,0,0,0.70886074,429.7183,479.85756)"
       inkscape:label="Hershey Text"
       inkscape:export-xdpi="90"
       inkscape:export-ydpi="90">
      <path
         id="path3394"
         transform="translate(15,0)"
         style="fill:none;stroke:#000000"
         d="m -10,-5 -2,-1 -1,-2 0,-1 1,-2 2,-1 1,0 2,1 1,2 0,3 -1,15 M 3,-12 -7,9 M 3,-12 1,9 m 14,-21 -2,1 -3,3 -3,4 -3,6 -3,7"
         inkscape:connector-curvature="0" />
      <path
         id="path3396"
         transform="translate(32,0)"
         style="fill:none;stroke:#000000"
         d="M -3,7 -1,6 0,5 1,3 1,1 0,0 -1,0 -3,1 -4,3 -4,6 -3,8 -1,9 1,9 3,8 4,7 6,4"
         inkscape:connector-curvature="0" />
      <path
         id="path3398"
         transform="translate(41,0)"
         style="fill:none;stroke:#000000"
         d="m -3,4 2,-3 3,-5 1,-2 1,-3 0,-2 -1,-1 -2,1 -1,2 -1,4 -1,7 0,6 1,1 L 0,9 2,8 3,7 5,4"
         inkscape:connector-curvature="0" />
      <path
         id="path3400"
         transform="translate(52,0)"
         style="fill:none;stroke:#000000"
         d="m -6,4 2,-4 -2,6 0,2 1,1 2,0 2,-1 2,-2 2,-3 m 1,-3 -6,18 -1,2 -2,1 -1,-1 0,-2 1,-3 3,-3 L 1,10 3,9 6,7 9,4"
         inkscape:connector-curvature="0" />
    </g>
  </g>
</svg>
